<svg xmlns="http://www.w3.org/2000/svg" viewBox="0 0 21 18">
    <path d="M18.938 4.926c.012.178.012.356.012.533 0 5.42-4.124 11.663-11.662 11.663-2.323 0-4.48-.673-6.295-1.84.33.038.648.05.99.05 1.916 0 3.68-.647 5.089-1.75a4.106 4.106 0 01-3.832-2.843c.253.038.507.063.774.063.368 0 .736-.05 1.078-.14A4.1 4.1 0 011.806 6.64v-.051c.545.304 1.18.495 1.852.52a4.096 4.096 0 01-1.827-3.414c0-.761.203-1.459.558-2.068a11.651 11.651 0 008.452 4.29 4.63 4.63 0 01-.101-.94A4.097 4.097 0 0114.837.878a4.09 4.09 0 012.995 1.295 8.07 8.07 0 002.602-.99 4.088 4.088 0 01-1.802 2.259 8.217 8.217 0 002.36-.635 8.811 8.811 0 01-2.055 2.12z"/>
</svg>